<?xml version="1.0" standalone="no"?>
<!DOCTYPE svg PUBLIC "-//W3C//DTD SVG 20010904//EN"
 "http://www.w3.org/TR/2001/REC-SVG-20010904/DTD/svg10.dtd">
<svg version="1.0" xmlns="http://www.w3.org/2000/svg"
 width="651.000000pt" height="480.000000pt" viewBox="0 0 651.000000 480.000000"
 preserveAspectRatio="xMidYMid meet">

<g transform="translate(0.000000,480.000000) scale(0.100000,-0.100000)"
fill="#000000" stroke="none">
<path d="M13 4770 c9 -24 17 -30 52 -33 l40 -4 -42 -1 c-31 -1 -43 -6 -43 -17
0 -12 14 -15 70 -15 l70 0 0 30 0 30 80 0 c73 0 80 -2 80 -20 0 -20 7 -20 560
-20 553 0 560 0 560 -20 0 -17 7 -20 40 -20 33 0 40 3 40 20 0 17 7 20 40 20
33 0 40 -3 40 -20 0 -18 7 -20 80 -20 73 0 80 2 80 20 0 18 7 20 80 20 73 0
80 -2 80 -20 0 -20 7 -20 480 -20 473 0 480 0 480 20 0 17 7 20 40 20 33 0 40
-3 40 -20 0 -20 7 -20 360 -20 353 0 360 0 360 -20 0 -19 7 -20 160 -20 153 0
160 1 160 20 0 19 7 20 240 20 233 0 240 -1 240 -20 0 -19 -7 -20 -160 -20
-153 0 -160 -1 -160 -20 0 -20 7 -20 1040 -20 1033 0 1040 0 1040 20 0 18 7
20 80 20 73 0 80 -2 80 -20 0 -17 7 -20 40 -20 33 0 40 3 40 20 0 11 7 20 15
20 12 0 15 16 15 80 l0 80 -3254 0 -3254 0 11 -30z m4787 -110 c0 -18 -7 -20
-80 -20 -73 0 -80 2 -80 20 0 18 7 20 80 20 73 0 80 -2 80 -20z"/>
<path d="M2898 4643 c12 -2 32 -2 45 0 12 2 2 4 -23 4 -25 0 -35 -2 -22 -4z"/>
<path d="M3178 4643 c34 -2 90 -2 125 0 34 2 6 3 -63 3 -69 0 -97 -1 -62 -3z"/>
<path d="M3543 4643 c9 -2 25 -2 35 0 9 3 1 5 -18 5 -19 0 -27 -2 -17 -5z"/>
<path d="M3618 4643 c12 -2 30 -2 40 0 9 3 -1 5 -23 4 -22 0 -30 -2 -17 -4z"/>
<path d="M6418 4563 c12 -2 32 -2 45 0 12 2 2 4 -23 4 -25 0 -35 -2 -22 -4z"/>
<path d="M1320 4004 c-434 -41 -782 -267 -959 -622 -85 -169 -116 -330 -136
-712 -7 -127 7 -356 31 -495 41 -245 137 -487 245 -617 l39 -46 -68 -11 c-97
-17 -434 -81 -454 -87 -17 -5 -18 -47 -18 -710 l0 -704 506 0 506 0 -48 53
c-97 106 -165 204 -189 273 -60 169 -8 446 110 590 39 48 63 55 245 79 146 19
541 57 546 53 2 -2 -61 -14 -139 -27 -184 -29 -337 -65 -387 -91 -62 -32 -75
-66 -75 -195 0 -119 12 -169 65 -280 70 -144 193 -212 692 -381 l217 -74 2231
0 2230 0 0 891 0 891 -300 -7 -300 -8 0 36 0 35 63 7 c102 10 169 26 217 50
172 87 253 308 267 735 6 186 -13 477 -43 660 -52 311 -174 530 -342 612 -63
31 -73 33 -172 32 -84 -1 -117 -5 -165 -24 -235 -90 -397 -318 -451 -633 -10
-59 -18 -187 -21 -353 l-6 -262 -91 -4 c-97 -5 -151 -24 -192 -70 -99 -108
-56 -294 98 -433 89 -80 249 -155 330 -155 24 0 42 -11 79 -50 72 -75 153
-110 274 -117 l95 -6 0 -32 0 -32 -107 -1 c-60 -1 -212 -7 -340 -13 -215 -11
-235 -10 -275 6 -65 27 -167 24 -247 -9 -52 -21 -81 -26 -148 -26 l-84 0 -217
138 c-119 76 -222 142 -229 145 -7 4 -143 -58 -307 -140 -294 -147 -296 -148
-264 -160 32 -11 -8 -13 -434 -18 l-42 0 -3 85 c-13 336 -92 503 -230 487 -86
-9 -157 -78 -201 -195 -22 -59 -26 -87 -30 -229 l-4 -163 -173 0 c-96 0 -181
-3 -191 -7 -14 -5 -16 -3 -9 13 65 147 110 351 125 565 24 337 -41 864 -136
1118 -121 321 -356 550 -639 621 -80 21 -253 32 -345 24z m2475 -2351 l80 -27
400 -5 400 -6 3 -166 2 -167 -117 -6 c-65 -4 -235 -13 -378 -21 -143 -8 -277
-15 -297 -15 l-38 0 0 65 c0 71 0 71 -72 89 l-28 6 0 -85 0 -85 -34 0 -35 0
-1 225 c-1 260 -12 241 115 198z"/>
<path d="M4340 1480 l0 -90 60 0 61 0 -3 88 -3 87 -57 3 -58 3 0 -91z"/>
</g>
</svg>
