<?xml version="1.0" standalone="no"?>
<!DOCTYPE svg PUBLIC "-//W3C//DTD SVG 20010904//EN"
 "http://www.w3.org/TR/2001/REC-SVG-20010904/DTD/svg10.dtd">
<svg version="1.0" xmlns="http://www.w3.org/2000/svg"
padding="10px"
 width="15px" height="15px" viewBox="0 0 30.000000 30.000000"
 preserveAspectRatio="xMidYMid meet">

<g transform="translate(0.000000, 30.000000) scale(0.100000,-0.100000)"
fill="#000000" stroke="none">
<path d="M177 263 c-3 -5 12 -29 33 -54 46 -52 54 -39 9 17 -39 49 -36 47 -42
37z"/>
<path d="M136 222 c-3 -5 14 -23 38 -41 46 -32 56 -36 56 -23 0 14 -88 73 -94
64z"/>
<path d="M100 171 c0 -5 8 -11 18 -14 9 -3 34 -12 55 -21 20 -9 37 -12 37 -7
0 6 -21 19 -46 31 -51 22 -64 24 -64 11z"/>
<path d="M90 123 c0 -5 25 -14 55 -20 30 -5 55 -6 55 -2 0 9 -19 15 -72 25
-22 3 -38 2 -38 -3z"/>
<path d="M40 60 l0 -40 100 0 100 0 0 40 c0 22 -4 40 -10 40 -5 0 -10 -13 -10
-30 l0 -30 -80 0 -80 0 0 30 c0 17 -4 30 -10 30 -5 0 -10 -18 -10 -40z"/>
<path d="M80 70 c0 -6 27 -10 60 -10 33 0 60 4 60 10 0 6 -27 10 -60 10 -33 0
-60 -4 -60 -10z"/>
</g>
</svg>
